<?xml version="1.0" encoding="UTF-8" standalone="no"?>
<svg
   xmlns:dc="http://purl.org/dc/elements/1.1/"
   xmlns:cc="http://creativecommons.org/ns#"
   xmlns:rdf="http://www.w3.org/1999/02/22-rdf-syntax-ns#"
   xmlns:svg="http://www.w3.org/2000/svg"
   xmlns="http://www.w3.org/2000/svg"
   viewBox="0 0 1122.52 793.70135"
   height="793.70135"
   width="1122.52"
   xml:space="preserve"
   id="svg2"
   version="1.1"><metadata
     id="metadata8"><rdf:RDF><cc:Work
         rdf:about=""><dc:format>image/svg+xml</dc:format><dc:type
           rdf:resource="http://purl.org/dc/dcmitype/StillImage" /><dc:title></dc:title></cc:Work></rdf:RDF></metadata><defs
     id="defs6"><clipPath
       id="clipPath18"
       clipPathUnits="userSpaceOnUse"><path
         id="path16"
         d="m 616.417,513.071 h 189.142 v 60.472 H 616.417 Z" /></clipPath><clipPath
       id="clipPath102"
       clipPathUnits="userSpaceOnUse"><path
         id="path100"
         d="m 616.417,558.501 v -30.49 l 25.917,-14.94 26.019,15.042 v 12.094 l -5.387,3.049 5.387,3.049 v 0.102 l 0.101,12.094 -26.019,15.042 z m 5.387,-27.339 v 24.188 l 20.631,11.892 20.633,-11.892 v -5.894 l -10.876,-6.302 v -6.199 l 5.488,3.15 5.388,-2.946 v -5.895 l -17.989,-10.367 v 24.087 l 6.402,3.76 -5.386,3.151 -16.161,-9.35 5.388,-3.151 4.268,2.439 v -20.936 z" /></clipPath><linearGradient
       id="linearGradient114"
       spreadMethod="pad"
       gradientTransform="matrix(0,-60.472501,-60.472501,0,642.43569,573.54336)"
       gradientUnits="userSpaceOnUse"
       y2="0"
       x2="1"
       y1="0"
       x1="0"><stop
         id="stop108"
         offset="0"
         style="stop-opacity:1;stop-color:#ed4530" /><stop
         id="stop110"
         offset="0.5"
         style="stop-opacity:1;stop-color:#da3a2c" /><stop
         id="stop112"
         offset="1"
         style="stop-opacity:1;stop-color:#971a1f" /></linearGradient></defs><g
     transform="matrix(1.3333333,0,0,-1.3333333,0,793.70133)"
     id="g10"><g
       id="g12"><g
         clip-path="url(#clipPath18)"
         id="g14"><g
           transform="translate(713.4782,551.5903)"
           id="g20"><path
             id="path22"
             style="fill:#52575a;fill-opacity:1;fill-rule:nonzero;stroke:none"
             d="m 0,0 c -0.915,-6.2 -3.456,-8.334 -9.655,-8.334 -6.302,0 -8.944,2.338 -8.029,8.842 0.813,6.302 3.353,8.436 9.757,8.436 C -1.728,8.842 0.915,6.403 0,0 m -11.485,0 c -0.508,-3.354 -0.203,-4.167 2.033,-4.167 2.134,0 2.744,0.915 3.252,4.675 0.508,3.456 0.204,4.269 -1.829,4.269 C -10.265,4.675 -10.977,3.862 -11.485,0" /></g><g
           transform="translate(733.3986,551.5903)"
           id="g24"><path
             id="path26"
             style="fill:#52575a;fill-opacity:1;fill-rule:nonzero;stroke:none"
             d="m 0,0 c -0.915,-6.2 -3.456,-8.334 -9.655,-8.334 -6.302,0 -8.944,2.338 -8.029,8.842 0.813,6.302 3.354,8.436 9.757,8.436 C -1.728,8.842 0.915,6.403 0,0 m -11.485,0 c -0.508,-3.354 -0.203,-4.167 2.033,-4.167 2.134,0 2.744,0.915 3.252,4.675 0.508,3.456 0.204,4.269 -1.829,4.269 C -10.265,4.675 -10.977,3.862 -11.485,0" /></g><g
           transform="translate(741.7325,549.1511)"
           id="g28"><path
             id="path30"
             style="fill:#52575a;fill-opacity:1;fill-rule:nonzero;stroke:none"
             d="m 0,0 c -0.203,-1.016 0.102,-1.321 1.423,-1.321 h 1.423 l 0.305,-4.066 c -0.915,-0.508 -3.354,-0.711 -4.371,-0.711 -3.455,0 -5.285,1.829 -4.98,4.675 l 2.643,18.904 H 2.439 L 0,0" /></g><g
           transform="translate(754.9451,561.957)"
           id="g32"><path
             id="path34"
             style="fill:#52575a;fill-opacity:1;fill-rule:nonzero;stroke:none"
             d="m 0,0 c -0.102,-1.423 -0.407,-2.744 -1.016,-4.167 1.626,1.524 3.76,2.744 6.098,2.744 3.963,0 5.59,-2.541 4.675,-8.74 -0.712,-5.184 -2.846,-8.538 -9.147,-8.538 -2.439,0 -7.115,0.508 -9.147,1.321 l 3.15,22.258 H 0.61 L 0,0 m -2.033,-14.534 c 0.813,-0.101 1.525,-0.101 2.033,-0.101 2.338,0.101 3.049,0.813 3.659,4.776 0.406,3.05 0.203,3.659 -1.017,3.659 -1.219,0 -2.439,-0.609 -3.658,-1.626 z" /></g><g
           transform="translate(784.7239,551.5903)"
           id="g36"><path
             id="path38"
             style="fill:#52575a;fill-opacity:1;fill-rule:nonzero;stroke:none"
             d="m 0,0 c -0.915,-6.2 -3.456,-8.334 -9.655,-8.334 -6.302,0 -8.944,2.338 -8.029,8.842 0.813,6.302 3.354,8.436 9.757,8.436 C -1.626,8.842 0.915,6.403 0,0 m -11.485,0 c -0.508,-3.354 -0.203,-4.167 2.033,-4.167 2.134,0 2.744,0.915 3.252,4.675 0.508,3.456 0.204,4.269 -1.829,4.269 C -10.265,4.675 -10.977,3.862 -11.485,0" /></g><g
           transform="translate(803.4247,543.5612)"
           id="g40"><path
             id="path42"
             style="fill:#52575a;fill-opacity:1;fill-rule:nonzero;stroke:none"
             d="M 0,0 H -5.692 L -8.334,6.606 -12.908,0 h -6.199 l 6.098,8.436 -3.354,8.029 h 5.59 l 2.439,-6.2 4.37,6.2 H 2.134 L -3.659,8.436 Z" /></g><g
           transform="translate(684.3091,533.4994)"
           id="g44"><path
             id="path46"
             style="fill:#2c292c;fill-opacity:1;fill-rule:nonzero;stroke:none"
             d="m 0,0 c 1.423,0.102 2.643,0.102 4.574,0.102 3.15,0 4.471,-0.712 4.065,-3.354 C 8.334,-4.98 7.724,-5.895 6.098,-5.996 v -0.102 c 1.931,-0.102 2.439,-1.423 2.134,-3.456 -0.406,-2.54 -1.626,-3.15 -4.573,-3.15 -2.541,0 -3.862,0 -5.387,0.101 L 0,0 m 3.151,-10.672 c 1.626,0 2.134,0.305 2.337,1.83 0.204,1.423 -0.203,1.829 -1.626,1.829 H 1.728 L 1.22,-10.672 Z m 0.813,5.489 c 1.321,0 1.829,0.305 2.032,1.727 0.204,1.22 -0.203,1.423 -1.524,1.423 H 2.439 l -0.406,-3.15 z" /></g><g
           transform="translate(705.3474,527.0964)"
           id="g48"><path
             id="path50"
             style="fill:#2c292c;fill-opacity:1;fill-rule:nonzero;stroke:none"
             d="m 0,0 c -0.711,-4.98 -2.338,-6.403 -6.098,-6.403 -3.862,0 -5.387,1.525 -4.675,6.708 0.711,4.878 2.236,6.403 6.098,6.403 C -0.813,6.606 0.711,4.98 0,0 m -7.826,0 c -0.508,-3.252 -0.101,-4.167 1.83,-4.167 1.931,0 2.642,0.915 3.15,4.37 0.508,3.354 0.102,4.167 -1.829,4.167 -1.931,0 -2.643,-0.914 -3.151,-4.37" /></g><g
           transform="translate(708.3965,533.4994)"
           id="g52"><path
             id="path54"
             style="fill:#2c292c;fill-opacity:1;fill-rule:nonzero;stroke:none"
             d="m 0,0 c 1.321,0.102 3.151,0.203 4.472,0.203 4.065,0 5.59,-1.524 4.878,-6.606 -0.813,-5.488 -2.337,-6.403 -6.403,-6.403 -1.524,0 -3.252,0.102 -4.776,0.203 L 0,0 m 1.321,-10.57 h 1.626 c 2.135,0 2.948,0.61 3.456,4.37 0.508,3.557 0.102,4.167 -2.033,4.167 H 2.439 Z" /></g><g
           transform="translate(724.0482,531.2634)"
           id="g56"><path
             id="path58"
             style="fill:#2c292c;fill-opacity:1;fill-rule:nonzero;stroke:none"
             d="m 0,0 c -0.711,0 -1.016,-0.203 -1.016,-1.016 l -0.305,-1.931 h 4.98 L 3.354,-4.878 h -4.98 l -0.305,-2.44 c -0.102,-0.711 0.102,-0.914 0.813,-0.914 h 4.675 l -0.101,-2.033 c -1.627,-0.203 -3.659,-0.203 -5.489,-0.203 -2.134,0 -3.049,1.219 -2.744,3.049 l 1.017,7.216 c 0.203,1.524 1.219,2.439 3.049,2.439 2.032,0 4.167,0 5.793,-0.203 L 4.777,0 H 0" /></g><g
           transform="translate(740.2081,521.8114)"
           id="g60"><path
             id="path62"
             style="fill:#2c292c;fill-opacity:1;fill-rule:nonzero;stroke:none"
             d="m 0,0 c -0.102,-0.61 -0.407,-0.915 -1.016,-0.915 h -1.525 c -0.61,0 -0.813,0.305 -1.016,0.915 L -6.098,6.708 C -6.301,7.216 -6.505,8.029 -6.606,8.639 H -6.81 c 0,-0.61 -0.101,-1.321 -0.101,-1.931 l -1.016,-7.521 h -2.643 l 1.626,11.688 c 0.102,0.61 0.407,0.915 1.017,0.915 h 1.524 c 0.61,0 0.813,-0.305 1.016,-0.915 l 2.44,-6.505 c 0.203,-0.61 0.508,-1.321 0.609,-2.032 h 0.204 c 0,0.711 0,1.321 0.101,2.032 l 1.017,7.42 H 1.626 L 0,0" /></g><g
           transform="translate(745.5947,526.5883)"
           id="g64"><path
             id="path66"
             style="fill:#2c292c;fill-opacity:1;fill-rule:nonzero;stroke:none"
             d="m 0,0 c -1.931,0.813 -2.338,2.033 -2.134,3.76 0.406,2.846 1.931,3.354 4.878,3.354 1.321,0 2.846,-0.101 4.167,-0.508 L 6.606,4.675 c -1.118,0 -2.541,0.102 -3.963,0.102 -1.322,0 -1.83,0 -2.033,-1.22 C 0.508,2.744 0.711,2.541 1.626,2.134 L 3.862,1.22 C 5.895,0.406 6.301,-0.61 5.996,-2.541 5.59,-5.387 4.37,-6.098 1.016,-6.098 c -0.914,0 -2.54,0.102 -4.37,0.508 l 0.305,2.033 c 2.338,-0.102 3.354,-0.102 3.964,-0.102 1.626,0 2.134,0.203 2.337,1.321 0.102,0.813 -0.101,1.017 -0.914,1.322 L 0,0" /></g><g
           transform="translate(758.1974,531.2634)"
           id="g68"><path
             id="path70"
             style="fill:#2c292c;fill-opacity:1;fill-rule:nonzero;stroke:none"
             d="m 0,0 c -0.711,0 -1.016,-0.203 -1.016,-1.016 l -0.305,-1.931 h 4.98 L 3.354,-4.878 h -4.98 l -0.305,-2.44 c -0.102,-0.711 0.102,-0.914 0.813,-0.914 h 4.675 l -0.101,-2.033 c -1.627,-0.203 -3.659,-0.203 -5.489,-0.203 -2.134,0 -3.049,1.219 -2.744,3.049 l 1.017,7.216 c 0.203,1.524 1.219,2.439 3.049,2.439 2.032,0 4.167,0 5.793,-0.203 L 4.777,0 H 0" /></g><g
           transform="translate(768.6657,531.2634)"
           id="g72"><path
             id="path74"
             style="fill:#2c292c;fill-opacity:1;fill-rule:nonzero;stroke:none"
             d="m 0,0 c -0.711,0 -1.016,-0.203 -1.016,-1.016 l -0.305,-1.931 h 4.98 L 3.354,-4.878 h -4.98 l -0.305,-2.44 c -0.102,-0.711 0.102,-0.914 0.813,-0.914 h 4.675 l -0.101,-2.033 c -1.627,-0.203 -3.659,-0.203 -5.489,-0.203 -2.134,0 -3.049,1.219 -2.744,3.049 l 1.017,7.216 c 0.203,1.524 1.219,2.439 3.049,2.439 2.032,0 4.167,0 5.793,-0.203 L 4.777,0 H 0" /></g><g
           transform="translate(786.4517,521.3033)"
           id="g76"><path
             id="path78"
             style="fill:#2c292c;fill-opacity:1;fill-rule:nonzero;stroke:none"
             d="m 0,0 c -1.118,-0.508 -2.744,-0.61 -3.964,-0.61 -3.557,0 -4.573,1.626 -4.268,4.879 0.406,3.658 1.931,4.573 5.183,4.573 3.354,0 4.167,-1.219 3.862,-3.151 C 0.508,3.964 -0.61,3.354 -2.846,3.151 L -5.488,2.947 c 0,-1.321 0.711,-1.524 1.829,-1.524 0.915,0 2.439,0.101 3.456,0.203 L 0,0 m -3.252,4.777 c 0.914,0.101 1.423,0.305 1.524,1.219 0.102,0.814 -0.305,0.915 -1.423,0.915 -1.423,0 -1.829,-0.406 -2.134,-2.236 z" /></g><g
           transform="translate(790.0089,523.6409)"
           id="g80"><path
             id="path82"
             style="fill:#2c292c;fill-opacity:1;fill-rule:nonzero;stroke:none"
             d="M 0,0 C 0.61,0 1.016,-0.305 0.915,-1.016 L 0.813,-1.931 C 0.711,-2.541 0.407,-2.846 -0.203,-2.846 h -0.712 c -0.711,0 -1.016,0.305 -0.914,1.017 l 0.101,0.914 C -1.626,-0.305 -1.321,0 -0.711,0 H 0" /></g><g
           transform="translate(798.8511,521.6082)"
           id="g84"><path
             id="path86"
             style="fill:#2c292c;fill-opacity:1;fill-rule:nonzero;stroke:none"
             d="m 0,0 c -0.203,-0.407 -0.508,-0.711 -1.016,-0.711 h -2.541 c -0.508,0 -0.813,0.406 -0.915,0.813 l -1.829,11.789 h 2.845 l 1.017,-9.045 c 0.101,-0.508 0.101,-1.017 0.101,-1.525 h 0.407 c 0.102,0.508 0.305,1.017 0.508,1.525 l 3.557,9.045 H 5.082 L 0,0" /></g><g
           transform="translate(804.5427,523.6409)"
           id="g88"><path
             id="path90"
             style="fill:#2c292c;fill-opacity:1;fill-rule:nonzero;stroke:none"
             d="M 0,0 C 0.61,0 1.016,-0.305 0.915,-1.016 L 0.813,-1.931 C 0.711,-2.541 0.407,-2.846 -0.203,-2.846 h -0.712 c -0.711,0 -1.016,0.305 -0.914,1.017 l 0.101,0.914 C -1.626,-0.305 -1.321,0 -0.711,0 H 0" /></g><g
           transform="translate(692.1349,561.2456)"
           id="g92"><path
             id="path94"
             style="fill:#52575a;fill-opacity:1;fill-rule:nonzero;stroke:none"
             d="m 0,0 -2.439,-17.888 h -7.42 L -7.318,0 h -6.403 l 0.712,5.488 H 7.318 L 6.505,0 Z" /></g></g></g><g
       id="g96"><g
         clip-path="url(#clipPath102)"
         id="g98"><g
           id="g104"><g
             id="g106"><path
               id="path116"
               style="fill:url(#linearGradient114);stroke:none"
               d="m 616.417,558.501 v -30.49 l 25.917,-14.94 26.019,15.042 v 12.094 l -5.387,3.049 5.387,3.049 v 0.102 l 0.101,12.094 -26.019,15.042 z m 5.387,-27.339 v 24.188 l 20.631,11.892 20.633,-11.892 v -5.894 l -10.876,-6.302 v -6.199 l 5.488,3.15 5.388,-2.946 v -5.895 l -17.989,-10.367 v 24.087 l 6.402,3.76 -5.386,3.151 -16.161,-9.35 5.388,-3.151 4.268,2.439 v -20.936 z" /></g></g></g></g><text
       id="text120"
       style="font-variant:normal;font-weight:bold;font-stretch:normal;font-size:50px;font-family:'Exo 2';-inkscape-font-specification:Exo2;writing-mode:lr-tb;fill:#393536;fill-opacity:1;fill-rule:nonzero;stroke:none"
       transform="matrix(1,0,0,-1,36,536.3905)"><tspan
         id="tspan118"
         y="0"
         x="0 25.75 54.099998 83.050003 93.900002 123.6 151.60001 171.89999 182.75">Tag der offenen Tür</tspan></text>
<text
       id="text124"
       style="font-variant:normal;font-weight:bold;font-stretch:normal;font-size:19.1909008px;font-family:'Exo 2';-inkscape-font-specification:Exo2;writing-mode:lr-tb;fill:#393536;fill-opacity:1;fill-rule:nonzero;stroke:none"
       transform="matrix(1,0,0,-1,36,502.8065)"><tspan
         id="tspan122"
         y="0"
         x="0 11.169104 22.050344 38.899956 49.013557 56.90102 67.782257 78.893791 83.557182 87.721603 95.954498 107.83366 112.55463 116.71906 130.57489 141.66722 151.93436 156.65532 160.81975 171.91208 183.98315 192.21605 202.31047 206.4749 214.41992 218.58435 226.81725 235.05014 240.02058 252.09166 264.16275 268.32718 276.27219 280.43661 288.66953 298.76392 303.73438 315.80545 327.87653 332.04095 345.10995 356.60532">Samstag, 18. Nov. 2017 - 11:00 - 17:00 Uhr</tspan></text>
<path
       id="path126"
       style="fill:#f04431;fill-opacity:1;fill-rule:nonzero;stroke:none"
       d="M 36,422.569 H 77.953 V 397.161 H 36 Z m 41.953,0 H 414.945 V 397.161 H 77.953 Z" /><path
       id="path128"
       style="fill:#d8d6d5;fill-opacity:1;fill-rule:nonzero;stroke:none"
       d="M 36,372.453 H 77.953 V 347.745 H 36 Z m 41.953,0 H 414.945 V 347.745 H 77.953 Z M 36,323.038 H 77.953 V 298.33 H 36 Z m 41.953,0 H 414.945 V 298.33 H 77.953 Z M 36,273.622 H 77.953 V 248.914 H 36 Z m 41.953,0 H 414.945 V 248.914 H 77.953 Z M 36,224.206 H 77.953 V 199.498 H 36 Z m 41.953,0 H 414.945 V 199.498 H 77.953 Z M 36,174.791 H 77.953 V 150.083 H 36 Z m 41.953,0 H 414.945 V 150.083 H 77.953 Z" /><text
       id="text132"
       style="font-variant:normal;font-weight:bold;font-stretch:normal;font-size:16px;font-family:'Exo 2';-inkscape-font-specification:Exo2;writing-mode:lr-tb;fill:#f04431;fill-opacity:1;fill-rule:nonzero;stroke:none"
       transform="matrix(1,0,0,-1,36,431.0731)"><tspan
         id="tspan130"
         y="0"
         x="0 10.288 19.360001 28.799999 42.848 46.992001 50.464001 58.976002 68.367996 77.807999 87.391998 96.574402">Raum: Lounge</tspan></text>
<text
       id="text136"
       style="font-variant:normal;font-weight:bold;font-stretch:normal;font-size:12px;font-family:'Exo 2';-inkscape-font-specification:Exo2;writing-mode:lr-tb;fill:#ffffff;fill-opacity:1;fill-rule:nonzero;stroke:none"
       transform="matrix(1,0,0,-1,41.6693,405.6653)"><tspan
         id="tspan134"
         y="0"
         x="0 6.9239998 11.856 18.66 23.76 41.952 53.484001 60.287998">StartWas</tspan></text>
<text
       id="text158"
       style="font-variant:normal;font-weight:300;font-stretch:normal;font-size:11px;font-family:'Exo 2 Light';-inkscape-font-specification:Exo2;writing-mode:lr-tb;fill:#231f20;fill-opacity:1;fill-rule:nonzero;stroke:none"
       transform="matrix(1,0,0,-1,41.6693,380.9574)"><tspan
         id="tspan138"
         y="0"
         x="0 4.3010001 8.6020002 11.077 17.709999 41.953999 49.291 55.528 61.522999 67.781998 71.929001 78.143997 83.378899 89.593903 95.874901 99.933899 105.8079 109.6029 114.6739 121.5599 125.8939 132.13091 138.47791 144.73689 150.2039 156.4409 160.7749">11:45Quadrocopter-Grundkurs</tspan><tspan
         id="tspan140"
         y="24.705999"
         x="0 4.3010001 10.461 12.936 17.237 41.953999 48.323002 54.560001 58.894001 64.427002 70.301003 72.918999 79.265999 83.347 89.584 95.931 100.265 106.502 112.849 118.932 121.418 130.97701 133.595 138.92999 143.0759 149.29089 154.5258 160.7408 167.0878 171.1468 175.29379 181.5088 184.6658 187.8228 193.69679">12:15Kurzeinführung Microcontroller</tspan><tspan
         id="tspan142"
         y="49.411999"
         x="0 4.3010001 10.461 12.936 19.569 41.953999 48.323002 54.560001 58.894001 64.427002 70.301003 72.918999 79.265999 83.347 89.584 95.931 100.265 106.502 112.849 118.932 121.418 124.036 130.383 132.869 139.12801 145.123 150.67799 153.164 160.853 166.84801 172.183 178.53 182.864 185.48199 190.817 197.164 201.22301 207.097 213.444 219.74699 223.8918 230.08479 234.1438 240.3588 245.6597 251.87469 255.03169 257.90271 260.3887 269.94769 277.0647 283.38971">12:45Kurzeinführung in das Nachrichtenprotokoll MQTT</tspan><tspan
         id="tspan144"
         y="74.117996"
         x="0 4.3010001 10.406 12.881 17.181999 41.953999 48.323002 54.560001 58.894001 64.427002 70.301003 72.918999 79.265999 83.347 87.681 93.917999 100.265 104.599 110.836 117.183 123.266 125.752 131.4709 135.6179 141.4919 144.10989 148.1909 154.4279 160.7749">13:15Kurzeinfrührung Freifunk</tspan><tspan
         id="tspan146"
         y="98.823997"
         x="0 4.3010001 10.406 12.881 19.514 41.953999 49.291 55.528 61.522999 67.781998 71.929001 78.143997 83.378899 89.593903 95.874901 99.933899 105.8079 109.6029 114.6739 121.5599 125.8939 132.13091 138.47791 144.73689 150.2039 156.4409 160.7749">13:45Quadrocopter-Grundkurs</tspan><tspan
         id="tspan148"
         y="123.53"
         x="0 4.3010001 10.989 13.464 17.764999 41.953999 51.513 57.507999 63.744999 69.300003 75.174004 79.254997 85.25 88.406998 91.564003 97.438004 99.924004 106.612 109.043 115.599 118.074 120.56 127.017 133.254 138.80901 145.15601 150.22701 157.916 163.911 169.246 175.593 179.927 182.545 187.88 194.22701 198.286 200.772 206.998 212.87199 215.49001 217.976 224.0007 229.87469 233.9557 239.9507 246.2977 252.3257 258.19971 262.3027 264.7887 274.34769 280.34271 286.57971">14:15Mausefalle 4.0: Push-Nachricht bei gefanger Maus</tspan><tspan
         id="tspan150"
         y="148.23599"
         x="0 4.3010001 10.989 13.464 20.097 41.953999 48.796001 54.351002 59.466 61.512001 66.945999 69.124001 74.711998 80.146004 86.053001 91.487 93.532997 100.782 106.216 109.9681 115.7871 121.6941 127.4691 133.2551 138.9861 144.0351 146.0811 151.20711 157.0041 166.21111 168.2571 175.5061 180.94009 186.7261 192.1601 198.06709 203.8531 209.28709 213.18111 218.9781 222.61909 224.6541 226.4361 232.32111 234.4991 240.36211 246.2251 251.3401 253.38609 259.18311 265.09009 270.90909 272.95511 278.64209 282.5361 286.17709 291.73209 297.6391 301.53311 307.33011 313.23709 318.8801 323.99509 329.7811 335.21509 339.1091 341.28711 346.1821 352.08911 355.7081">14:45Das eigene Nerdhobby zum Nebenberuf: Tipps und Erfahrungsberichte</tspan><tspan
         id="tspan152"
         y="172.942"
         x="0 4.3010001 10.164 12.639 16.940001 41.953999 47.882999 53.877998 58.993 61.390999 67.166 70.102997 76.109001 78.507004 82.346001 84.600998 86.681099 96.812103 99.210098 104.8641 107.1301 116.5571 122.3321 128.45911 130.7251 136.3791 138.7771 144.9041 150.55811 152.8241 158.50011 160.8981 165.0121 174.4391 180.2141 182.4801 187.8701 189.92709 193.3811 199.1561 205.2831 209.2101 214.86411 217.1301 222.90511 228.9221 232.7831 238.78909 244.5641 250.5811 254.4201 256.6861 262.70309 268.83011 274.86911 277.1351 279.53311 285.6601 287.92609 292.00711 294.2731 303.61209 309.60709 315.7341 321.50909 325.34811 327.3721 332.82809 338.48209 342.5961 345.53311 347.93109 353.58511 357.6991">15:15Socialbit: Wie man eine Firma 7 Jahre aufbaut und in 1 Monat verliert</tspan><tspan
         id="tspan154"
         y="197.64799"
         x="0 4.3010001 10.164 12.639 19.271999 41.953999 49.291 55.528 61.522999 67.781998 71.929001 78.143997 83.378899 89.593903 95.874901 99.933899 105.8079 109.6029 114.6739 121.5599 125.8939 132.13091 138.47791 144.73689 150.2039 156.4409 160.7749">15:45Quadrocopter-Grundkurs</tspan><tspan
         id="tspan156"
         y="222.354"
         x="0 4.3010001 10.56 13.035 17.336 41.953999 47.674 53.548 56.166 62.513 68.068001 72.126999 78.122002 84.359001 90.584999 93.070999 98.625999 104.5 107.657 113.883 119.757 123.8589 126.3449 135.9919 141.86591 147.4209 152.97591 158.8499">16:15Feinstaub selber messen</tspan></text>
<path
       id="path160"
       style="fill:#f04431;fill-opacity:1;fill-rule:nonzero;stroke:none"
       d="M 36,117.875 H 77.953 V 92.467 H 36 Z m 41.953,0 H 414.945 V 92.467 H 77.953 Z" /><path
       id="path162"
       style="fill:#d8d6d5;fill-opacity:1;fill-rule:nonzero;stroke:none"
       d="M 36,92.467 H 77.953 V 67.759 H 36 Z m 41.953,0 H 414.945 V 67.759 H 77.953 Z M 36,43.052 H 77.953 V 18.344 H 36 Z m 41.953,0 H 414.945 V 18.344 H 77.953 Z" /><text
       id="text166"
       style="font-variant:normal;font-weight:bold;font-stretch:normal;font-size:16px;font-family:'Exo 2';-inkscape-font-specification:Exo2;writing-mode:lr-tb;fill:#f04431;fill-opacity:1;fill-rule:nonzero;stroke:none"
       transform="matrix(1,0,0,-1,36,126.379)"><tspan
         id="tspan164"
         y="0"
         x="0 10.288 19.360001 28.799999 42.848 46.992001 50.464001 61.344002 68.110397 77.182404 86.622398 97.902397 106.8624">Raum: Draußen</tspan></text>
<text
       id="text170"
       style="font-variant:normal;font-weight:bold;font-stretch:normal;font-size:12px;font-family:'Exo 2';-inkscape-font-specification:Exo2;writing-mode:lr-tb;fill:#ffffff;fill-opacity:1;fill-rule:nonzero;stroke:none"
       transform="matrix(1,0,0,-1,41.6693,100.9712)"><tspan
         id="tspan168"
         y="0"
         x="0 6.9239998 11.856 18.66 23.76 41.952 53.484001 60.287998">StartWas</tspan></text>
<text
       id="text178"
       style="font-variant:normal;font-weight:300;font-stretch:normal;font-size:11px;font-family:'Exo 2 Light';-inkscape-font-specification:Exo2;writing-mode:lr-tb;fill:#231f20;fill-opacity:1;fill-rule:nonzero;stroke:none"
       transform="matrix(1,0,0,-1,41.6693,76.2634)"><tspan
         id="tspan172"
         y="0"
         x="0 4.3010001 10.461 12.936 19.492001 41.953999 49.291 55.528 61.522999 67.781998 71.929001 78.143997 83.378899 89.593903 95.874901 99.933899 105.8079 109.6029 114.6739 120.5699 123.7269 129.9639 136.04691 141.6019 147.9489 154.14079">12:00Quadrocopter-Flugshow</tspan><tspan
         id="tspan174"
         y="24.705999"
         x="0 4.3010001 10.989 13.464 20.02 41.953999 49.291 55.528 61.522999 67.781998 71.929001 78.143997 83.378899 89.593903 95.874901 99.933899 105.8079 109.6029 114.6739 120.5699 123.7269 129.9639 136.04691 141.6019 147.9489 154.14079">14:00Quadrocopter-Flugshow</tspan><tspan
         id="tspan176"
         y="49.411999"
         x="0 4.3010001 10.56 13.035 19.591 41.953999 49.291 55.528 61.522999 67.781998 71.929001 78.143997 83.378899 89.593903 95.874901 99.933899 105.8079 109.6029 114.6739 120.5699 123.7269 129.9639 136.04691 141.6019 147.9489 154.14079">16:00Quadrocopter-Flugshow</tspan></text>
<path
       id="path180"
       style="fill:#f04431;fill-opacity:1;fill-rule:nonzero;stroke:none"
       d="m 426.614,480.185 h 41.953 v -25.408 h -41.953 z m 41.953,0 H 805.559 V 454.777 H 468.567 Z" /><path
       id="path182"
       style="fill:#d8d6d5;fill-opacity:1;fill-rule:nonzero;stroke:none"
       d="m 426.614,454.777 h 41.953 v -24.708 h -41.953 z m 41.953,0 H 805.559 V 430.069 H 468.567 Z m -41.953,-49.416 h 41.953 v -24.708 h -41.953 z m 41.953,0 H 805.559 V 380.653 H 468.567 Z" /><text
       id="text186"
       style="font-variant:normal;font-weight:bold;font-stretch:normal;font-size:16px;font-family:'Exo 2';-inkscape-font-specification:Exo2;writing-mode:lr-tb;fill:#f04431;fill-opacity:1;fill-rule:nonzero;stroke:none"
       transform="matrix(1,0,0,-1,426.6142,488.6888)"><tspan
         id="tspan184"
         y="0"
         x="0 10.288 19.360001 28.799999 42.848 46.992001 50.464001 61.472 70.543999 80.127998 89.632004 103.1024 112.0624 118.8624">Raum: Handwerk</tspan></text>
<text
       id="text190"
       style="font-variant:normal;font-weight:bold;font-stretch:normal;font-size:12px;font-family:'Exo 2';-inkscape-font-specification:Exo2;writing-mode:lr-tb;fill:#ffffff;fill-opacity:1;fill-rule:nonzero;stroke:none"
       transform="matrix(1,0,0,-1,432.2834,463.2809)"><tspan
         id="tspan188"
         y="0"
         x="0 6.9239998 11.856 18.66 23.76 41.952 53.484001 60.287998">StartWas</tspan></text>
<text
       id="text198"
       style="font-variant:normal;font-weight:300;font-stretch:normal;font-size:11px;font-family:'Exo 2 Light';-inkscape-font-specification:Exo2;writing-mode:lr-tb;fill:#231f20;fill-opacity:1;fill-rule:nonzero;stroke:none"
       transform="matrix(1,0,0,-1,432.2834,438.5731)"><tspan
         id="tspan192"
         y="0"
         x="0 4.3010001 10.989 13.464 20.02 41.953999 47.662998 52.591 58.740002 65.086998 67.705002 72.039001 76.098 81.653 84.139 89.694 95.568001 98.724998 104.951 110.506 114.565 117.051 123.277 129.151 135.41 139.744 145.981 151.31599 156.6158 162.48981 168.6938">14:00T-Shirts selbst bedrucken*</tspan><tspan
         id="tspan194"
         y="24.705999"
         x="0 4.3010001 10.989 13.464 20.02 41.953999 48.410999 51.028999 56.595001 62.160999 68.155998 70.641998 76.196999 82.070999 85.227997 91.454002 97.328003 101.4299 103.9159 113.5629 119.5579 124.8929 131.2399 137.11391">14:00Pizza selber machen</tspan><tspan
         id="tspan196"
         y="49.411999"
         x="0 4.3010001 10.989 13.464 19.569 41.953999 48.191002 54.405998 60.433998 66.307999 69.464996 75.811996 81.806999 88.043999 93.598999 96.084999 102.311 108.306 114.543 120.417 126.6199">14:30Vogelhaus bauen*</tspan></text>
<path
       id="path200"
       style="fill:#f04431;fill-opacity:1;fill-rule:nonzero;stroke:none"
       d="m 426.614,348.446 h 41.953 v -25.408 h -41.953 z m 41.953,0 H 805.559 V 323.038 H 468.567 Z" /><path
       id="path202"
       style="fill:#d8d6d5;fill-opacity:1;fill-rule:nonzero;stroke:none"
       d="m 426.614,323.038 h 41.953 V 298.33 h -41.953 z m 41.953,0 H 805.559 V 298.33 H 468.567 Z m -41.953,-49.416 h 41.953 v -24.708 h -41.953 z m 41.953,0 H 805.559 V 248.914 H 468.567 Z m -41.953,-49.416 h 41.953 v -24.708 h -41.953 z m 41.953,0 H 805.559 V 199.498 H 468.567 Z m -41.953,-49.415 h 41.953 v -24.708 h -41.953 z m 41.953,0 H 805.559 V 150.083 H 468.567 Z" /><text
       id="text206"
       style="font-variant:normal;font-weight:bold;font-stretch:normal;font-size:16px;font-family:'Exo 2';-inkscape-font-specification:Exo2;writing-mode:lr-tb;fill:#f04431;fill-opacity:1;fill-rule:nonzero;stroke:none"
       transform="matrix(1,0,0,-1,426.6142,356.9496)"><tspan
         id="tspan204"
         y="0"
         x="0 10.288 19.360001 28.799999 42.848 46.992001 50.464001 60.751999 70.192001 79.632004 93.68 103.856">Raum: Ruum42</tspan></text>
<text
       id="text210"
       style="font-variant:normal;font-weight:bold;font-stretch:normal;font-size:12px;font-family:'Exo 2';-inkscape-font-specification:Exo2;writing-mode:lr-tb;fill:#ffffff;fill-opacity:1;fill-rule:nonzero;stroke:none"
       transform="matrix(1,0,0,-1,432.2834,331.5417)"><tspan
         id="tspan208"
         y="0"
         x="0 6.9239998 11.856 18.66 23.76 41.952 53.484001 60.287998">StartWas</tspan></text>
<text
       id="text226"
       style="font-variant:normal;font-weight:300;font-stretch:normal;font-size:11px;font-family:'Exo 2 Light';-inkscape-font-specification:Exo2;writing-mode:lr-tb;fill:#231f20;fill-opacity:1;fill-rule:nonzero;stroke:none"
       transform="matrix(1,0,0,-1,432.2834,306.8339)"><tspan
         id="tspan212"
         y="0"
         x="0 4.3010001 8.6020002 11.077 17.709999 41.953999 48.741001 54.615002 60.698002 65.031998 71.268997 78.606003 84.843002 91.190002 97.273003 99.759003 105.996 112.343 118.602 121.088 127.842 134.07899 139.414 144.881 150.436 155.771 162.118 168.11301 174.35001 176.836 180.3318 186.4588 192.8058 196.86481 205.8848 208.50281 213.8378 219.30479 222.46181 228.69881 235.04581 241.1288 243.3497 248.4317 254.6467 260.86169 264.01871 270.24469 276.33871 281.67371">11:45Begrüßung und Rückschau (Entwicklung Toolbox)</tspan><tspan
         id="tspan214"
         y="24.705999"
         x="0 4.3010001 10.461 12.936 19.041 41.953999 52.305 58.652 64.647003 68.706001 70.994003 75.053001 81.400002 87.274002 89.760002 96.107002 102.102 107.437 112.7159 118.2819 120.7679 128.0499 130.66789 136.5419 138.7639 143.8459 150.0609 156.27589 159.43291 165.65891 171.7529 177.4729 179.95889 185.5139 189.57291 195.4469 198.6039 201.71581 205.7748 208.2608 210.8788 217.2258 221.3728 227.2468 229.7328 236.1898 240.33681 246.5518 249.1808 255.05479 260.52179 264.58081 270.4548 272.69769 278.37369 284.58871">12:30What the hack? Die Toolbox stellt ihre Projekte vor</tspan><tspan
         id="tspan216"
         y="49.411999"
         x="0 4.3010001 10.406 12.881 17.181999 41.953999 44.715 50.27 54.328999 56.814999 63.074001 69.069 74.624001 77.110001 82.665001 88 94.347 100.562 106.909 109.395 114.961 121.198 123.684 129.91 136.147 142.494 146.55299 152.119 154.605 160.73199 163.35001 169.69701 175.923 179.08 181.698 187.033 192.33279 198.2068 200.69279 203.31081 209.65781 212.1438 218.4028 221.0208 226.89481 229.11571 235.35271 241.2267 245.5607 251.55569 257.90271 263.4577 267.51669 273.51169 276.62469 280.68369 286.92068 293.2677 299.35071 304.9057 308.96469 314.83871 320.17371 326.52069 332.86771 335.48569">13:15Ist das schon zu bunt? Einblicke in die Veranstaltungstechnik</tspan><tspan
         id="tspan218"
         y="74.117996"
         x="0 4.3010001 10.989 13.464 20.02 41.953999 48.323002 54.560001 58.894001 64.427002 70.301003 72.918999 79.265999 83.347 89.584 95.931 100.265 106.502 112.849 118.932 121.418 128.722 134.59599 137.214 146.86099 152.856 159.093 163.15199 169.367 179.01401 185.009 189.06799 191.686 197.241 199.85899 205.733 210.067 216.304 222.651">14:00Kurzeinführung Heimautomatisierung</tspan><tspan
         id="tspan220"
         y="98.823997"
         x="0 4.3010001 10.989 13.464 20.097 41.953999 52.305 54.923 60.797001 63.283001 68.584999 74.800003 84.446999 94.094002 98.153 100.639 106.898 112.893 118.448 120.934 123.695 130.04201 134.101 139.97501 144.30901 150.65601 156.53 160.589 163.075 169.422 175.41701 180.752 187.099 189.58501 196.88901 202.884 209.121 214.67599 220.2618 225.8278 228.3138 231.0748 237.4218 242.88879 246.04581 252.28281 257.8378 260.45581 266.13071 272.0047 274.49069 281.37671 284.53369 290.52869 296.08371 300.1647 306.1597 311.71469 317.58871 321.9227 327.47769 333.7807 336.93771 342.81171 345.42969 352.76669 358.64069">14:45Wie kommt das Internet nach Hause? Inklusive Glasfaserspleißen</tspan><tspan
         id="tspan222"
         y="123.53"
         x="0 4.3010001 10.164 12.639 18.743999 41.953999 48.323002 54.560001 60.907001 66.461998 70.521004 73.678001 76.295998 81.630997 87.977997 93.851997 96.337997 99.098999 105.446 109.505 115.379 118.536 121.693 124.311 130.33791 136.2119 142.5589 148.12489 150.6109 155.6819 158.16789 164.0639 166.6819 172.1489 176.2079 178.8259 185.04089 191.38789 193.8739 200.1109 206.4579 212.7169 215.0137 225.3647 227.9827 232.3167 237.78371 240.9407 243.5587 248.89371 255.24071 260.54269 266.41669 269.0347">15:30Künstliche Intelligenz - Fiktion und Wirklichkeit</tspan><tspan
         id="tspan224"
         y="148.23599"
         x="0 4.3010001 10.56 13.035 17.336 41.953999 48.323002 54.560001 58.894001 64.427002 70.301003 72.918999 79.265999 83.347 89.584 95.931 100.265 106.502 112.849 118.932 121.418 128.172 134.16701 139.722 146.02499 152.25101 158.125 162.459 166.793 172.524 178.981">16:15Kurzeinführung RaspberryPi</tspan></text>
<path
       id="path228"
       style="fill:#f04431;fill-opacity:1;fill-rule:nonzero;stroke:none"
       d="m 426.614,117.875 h 41.953 V 92.467 h -41.953 z m 41.953,0 H 805.559 V 92.467 H 468.567 Z" /><path
       id="path230"
       style="fill:#d8d6d5;fill-opacity:1;fill-rule:nonzero;stroke:none"
       d="m 426.614,92.467 h 41.953 V 67.759 h -41.953 z m 41.953,0 H 805.559 V 67.759 H 468.567 Z M 426.614,43.052 h 41.953 V 18.344 h -41.953 z m 41.953,0 H 805.559 V 18.344 H 468.567 Z" /><text
       id="text234"
       style="font-variant:normal;font-weight:bold;font-stretch:normal;font-size:16px;font-family:'Exo 2';-inkscape-font-specification:Exo2;writing-mode:lr-tb;fill:#f04431;fill-opacity:1;fill-rule:nonzero;stroke:none"
       transform="matrix(1,0,0,-1,426.6142,126.379)"><tspan
         id="tspan232"
         y="0"
         x="0 10.288 19.360001 28.799999 42.848 46.992001 50.462399 59.726398 73.198402 82.158401 91.118401 97.694397 100.7984 111.1984 120.7984 130.39841 135.6304 144.59039 147.6944 158.09441 166.09441 175.0544 181.8544">Raum: Sweet Apple Acers</tspan></text>
<text
       id="text238"
       style="font-variant:normal;font-weight:bold;font-stretch:normal;font-size:12px;font-family:'Exo 2';-inkscape-font-specification:Exo2;writing-mode:lr-tb;fill:#ffffff;fill-opacity:1;fill-rule:nonzero;stroke:none"
       transform="matrix(1,0,0,-1,432.2834,100.9712)"><tspan
         id="tspan236"
         y="0"
         x="0 6.9239998 11.856 18.66 23.76 41.952 53.484001 60.287998">StartWas</tspan></text>
<text
       id="text246"
       style="font-variant:normal;font-weight:300;font-stretch:normal;font-size:11px;font-family:'Exo 2 Light';-inkscape-font-specification:Exo2;writing-mode:lr-tb;fill:#231f20;fill-opacity:1;fill-rule:nonzero;stroke:none"
       transform="matrix(1,0,0,-1,432.2834,76.2634)"><tspan
         id="tspan240"
         y="0"
         x="0 4.3010001 8.6020002 11.077 17.709999 41.953999 47.530998 53.723999 57.783001 63.657001 70.003998 72.314003 76.394997 82.632004 86.735001 89.219902 95.610901 98.228897 104.5759 110.8349 116.7089 121.0429">11:45Löten für Kinder*</tspan><tspan
         id="tspan242"
         y="24.705999"
         x="0 4.3010001 10.989 13.464 17.764999 41.953999 48.081001 50.699001 57.046001 62.601002 66.660004 69.278 75.152 81.235001 83.719902 86.337898 92.684898 94.906898 101.6719 105.8629 112.1219 118.3589 120.9769 127.3239 133.3629">14:15Einstieg in Arduino*</tspan><tspan
         id="tspan244"
         y="49.411999"
         x="0 4.3010001 10.164 12.639 18.743999 41.953999 47.674 51.820999 57.695 60.313 64.393997 70.630997 76.977997 82.169998 87.240997 93.137001 96.293999 102.289 107.844 114.191 119.1289 129.2599 135.4749 139.8089 145.27589 150.8309 157.1779 163.3929 169.5199">15:30Freifunk-Flash-Workshop*</tspan></text>
<text
       id="text252"
       style="font-variant:normal;font-weight:500;font-stretch:normal;font-size:12px;font-family:'Exo 2 Medium';-inkscape-font-specification:Exo2;writing-mode:lr-tb;fill:#393536;fill-opacity:1;fill-rule:nonzero;stroke:none"
       transform="matrix(1,0,0,-1,36,478.9722)"><tspan
         id="tspan248"
         y="0"
         x="0 7.4640002 13.932 18.756001 25.488001 32.484001 38.952 42 52.5 58.967999 63.2868 68.4468 75.118797 79.774803 84.622803 91.234802 99.394798 105.8628 108.5268 115.4148 118.1988 120.8628 128.1468 135.4308 142.3188 148.4868 154.6548 157.3188 167.89079 174.50281 179.3508 185.3976 192.29761 199.1376 203.9856">Bergheimer-Straße 6, 88677 Markdorf</tspan><tspan
         id="tspan250"
         y="18.996"
         x="0 5.4000001 7.7880001 14.676 21.516001 26.364 32.976002 39.972 50.472 56.939999 60.563999 67.463997 74.328003 81.323997 88.006798 94.4748 101.4708 104.1348 111.0108 114.0588 118.7148 123.3708 129.83881 132.50281 139.11481 146.11079 148.5336 158.40961 165.2496 170.0976 176.30161 182.40961 189.40559 196.24561 203.2536 211.9296 216.5856 223.4256 230.26559 233.8896 240.76559 247.4724 253.6644 258.96841 265.84439 272.68439 279.58441 286.0524 293.0484 299.1564 305.62439 312.09241 314.8884 321.78839">* Voranmeldungen bitte an workshop@toolbox-bodensee.de</tspan></text>
<text
       transform="scale(1,-1)"
       id="text1061"
       y="-531.58655"
       x="183.5014"
       style="font-style:normal;font-variant:normal;font-weight:normal;font-stretch:normal;font-size:12px;line-height:100%;font-family:'Alte Haas Grotesk';-inkscape-font-specification:'Alte Haas Grotesk, Normal';text-align:start;letter-spacing:0px;word-spacing:0px;writing-mode:lr-tb;text-anchor:start;fill:#000000;fill-opacity:1;stroke:none;stroke-width:0.75px;stroke-linecap:butt;stroke-linejoin:miter;stroke-opacity:1"
       xml:space="preserve"><tspan
         style="stroke-width:0.75px"
         y="-521.79736"
         x="183.5014"
         id="tspan1059"></tspan></text>
</g></svg>